<svg xmlns="http://www.w3.org/2000/svg" viewBox="0 0 310.27 210.28"><defs><style>.cls-1{fill:#1d1d1b;}</style></defs><title>logo-the_1</title><g id="Calque_2" data-name="Calque 2"><g id="Calque_1-2" data-name="Calque 1"><line class="cls-1" x1="5" y1="205.28" x2="213" y2="205.28"/><path class="cls-1" d="M213,210.28H5a5,5,0,0,1,0-10H213a5,5,0,0,1,0,10Z"/><path class="cls-1" d="M109.85,194.29h-1.32C45,192.8,2.14,86,.35,81.46a5,5,0,1,1,9.3-3.67c.42,1,42.16,105.18,99.12,106.49,34.05.8,67.54-35.12,99.67-106.7a5,5,0,1,1,9.12,4.09C184,156.41,147.78,194.29,109.85,194.29Z"/><path class="cls-1" d="M178.5,66.48l3.1-7.55c.22-.54,5.59-13.4,18.87-27C212.69,19.39,234.24,3.78,267.53.59L273.71,0,273,6.17c-.07.56-1.79,13.89-13.57,27.9-10.61,12.61-31.85,28.36-72.76,31.74Zm82.73-55c-21,3.38-38.9,12.48-53.31,27.13a94.4,94.4,0,0,0-12.78,16.2c24.85-3.54,44.16-12.68,56.2-26.69A54.55,54.55,0,0,0,261.23,11.47Z"/><path class="cls-1" d="M257.87,96.49c-14.81,0-33.7-3.88-56.47-16.13l-7.18-3.87,6.71-4.65c.48-.33,12-8.19,30.53-12.37,17.08-3.86,43.65-5.2,73.3,10.26l5.51,2.87-4,4.76c-.36.44-9.06,10.68-26.58,16A74.67,74.67,0,0,1,257.87,96.49ZM214.53,75.75C237.3,86.33,258.47,89.18,276.2,84a54.55,54.55,0,0,0,17.36-8.56c-19.45-8.6-39.42-10.72-59.48-6.29A94.89,94.89,0,0,0,214.53,75.75Z"/><path class="cls-1" d="M200.15,172.28c-1.87,0-3-.11-3.22-.13a5.95,5.95,0,0,1,1.22-11.83c.31,0,15.22,1.28,26.19-8.68,8.35-7.59,12.59-19.86,12.59-36.49a5.95,5.95,0,0,1,11.89,0c0,20.2-5.59,35.48-16.63,45.42C220.61,171,206.42,172.28,200.15,172.28Z"/><line class="cls-1" x1="21.86" y1="114.21" x2="196.61" y2="112.83"/><path class="cls-1" d="M21.86,119.21a5,5,0,0,1,0-10l174.75-1.38h0a5,5,0,0,1,0,10L21.9,119.21Z"/></g></g></svg>